%TF.GenerationSoftware,KiCad,Pcbnew,(6.0.11)*%
%TF.CreationDate,2023-10-05T20:18:08-05:00*%
%TF.ProjectId,BSidesDFW_2023_Badge,42536964-6573-4444-9657-5f323032335f,1*%
%TF.SameCoordinates,Original*%
%TF.FileFunction,Soldermask,Bot*%
%TF.FilePolarity,Negative*%
%FSLAX46Y46*%
G04 Gerber Fmt 4.6, Leading zero omitted, Abs format (unit mm)*
G04 Created by KiCad (PCBNEW (6.0.11)) date 2023-10-05 20:18:08*
%MOMM*%
%LPD*%
G01*
G04 APERTURE LIST*
G04 Aperture macros list*
%AMRotRect*
0 Rectangle, with rotation*
0 The origin of the aperture is its center*
0 $1 length*
0 $2 width*
0 $3 Rotation angle, in degrees counterclockwise*
0 Add horizontal line*
21,1,$1,$2,0,0,$3*%
G04 Aperture macros list end*
%ADD10R,1.700000X1.700000*%
%ADD11C,1.700000*%
%ADD12RotRect,1.800000X1.800000X315.000000*%
%ADD13C,1.800000*%
%ADD14C,1.400000*%
%ADD15RotRect,1.800000X1.800000X225.000000*%
G04 APERTURE END LIST*
G36*
X128682957Y-79619884D02*
G01*
X128782951Y-79621488D01*
X128850706Y-79624406D01*
X128881815Y-79628596D01*
X128883361Y-79629948D01*
X128880218Y-79656232D01*
X128871534Y-79716773D01*
X128858424Y-79804094D01*
X128842004Y-79910718D01*
X128830278Y-79985614D01*
X128814843Y-80083548D01*
X128793923Y-80216252D01*
X128768616Y-80376746D01*
X128740025Y-80558053D01*
X128709248Y-80753195D01*
X128677386Y-80955195D01*
X128645540Y-81157074D01*
X128642181Y-81178369D01*
X128613201Y-81363066D01*
X128586627Y-81534366D01*
X128563119Y-81687864D01*
X128543339Y-81819159D01*
X128527946Y-81923844D01*
X128517601Y-81997518D01*
X128512965Y-82035775D01*
X128512897Y-82040248D01*
X128534489Y-82039120D01*
X128592436Y-82032857D01*
X128681235Y-82022141D01*
X128795381Y-82007656D01*
X128929370Y-81990085D01*
X129076077Y-81970333D01*
X129258805Y-81945405D01*
X129404052Y-81925491D01*
X129516219Y-81909923D01*
X129599705Y-81898032D01*
X129658910Y-81889152D01*
X129698233Y-81882614D01*
X129722073Y-81877750D01*
X129734830Y-81873894D01*
X129740904Y-81870378D01*
X129742114Y-81869256D01*
X129752619Y-81849170D01*
X129779703Y-81794570D01*
X129821626Y-81709030D01*
X129876653Y-81596123D01*
X129943045Y-81459424D01*
X130019065Y-81302507D01*
X130102976Y-81128945D01*
X130193040Y-80942312D01*
X130227958Y-80869865D01*
X130319740Y-80679441D01*
X130405865Y-80500873D01*
X130484614Y-80337717D01*
X130554269Y-80193526D01*
X130613113Y-80071852D01*
X130659427Y-79976251D01*
X130691494Y-79910275D01*
X130707595Y-79877478D01*
X130709169Y-79874456D01*
X130715575Y-79883251D01*
X130733550Y-79912868D01*
X130763999Y-79964894D01*
X130807824Y-80040916D01*
X130865930Y-80142524D01*
X130939219Y-80271304D01*
X131028596Y-80428845D01*
X131134965Y-80616735D01*
X131259227Y-80836562D01*
X131402288Y-81089913D01*
X131565050Y-81378377D01*
X131581574Y-81407671D01*
X131669484Y-81561852D01*
X131740054Y-81681618D01*
X131795328Y-81770109D01*
X131837348Y-81830466D01*
X131868155Y-81865831D01*
X131887980Y-81878885D01*
X131918830Y-81884503D01*
X131987045Y-81894583D01*
X132088035Y-81908520D01*
X132217207Y-81925708D01*
X132369968Y-81945541D01*
X132541727Y-81967412D01*
X132727892Y-81990715D01*
X132841034Y-82004694D01*
X133745213Y-82115872D01*
X134036642Y-82571621D01*
X134116414Y-82696458D01*
X134189004Y-82810219D01*
X134251189Y-82907840D01*
X134299749Y-82984260D01*
X134331461Y-83034417D01*
X134342738Y-83052576D01*
X134332107Y-83074065D01*
X134293460Y-83123810D01*
X134228445Y-83199958D01*
X134138707Y-83300659D01*
X134025893Y-83424063D01*
X133891650Y-83568319D01*
X133753755Y-83714570D01*
X133587631Y-83890681D01*
X133450381Y-84038121D01*
X133340963Y-84158071D01*
X133258337Y-84251712D01*
X133201458Y-84320225D01*
X133169287Y-84364792D01*
X133160780Y-84386593D01*
X133160811Y-84386703D01*
X133167625Y-84418884D01*
X133179510Y-84484885D01*
X133195106Y-84576754D01*
X133213051Y-84686538D01*
X133224764Y-84760149D01*
X133241554Y-84866081D01*
X133263812Y-85005468D01*
X133290208Y-85170055D01*
X133319415Y-85351583D01*
X133350107Y-85541796D01*
X133380956Y-85732437D01*
X133394626Y-85816722D01*
X133434954Y-86065321D01*
X133468971Y-86275472D01*
X133497165Y-86450438D01*
X133520024Y-86593485D01*
X133538037Y-86707876D01*
X133551693Y-86796874D01*
X133561481Y-86863745D01*
X133567890Y-86911751D01*
X133571407Y-86944157D01*
X133572522Y-86964228D01*
X133571723Y-86975226D01*
X133569500Y-86980416D01*
X133568948Y-86981024D01*
X133548547Y-86973906D01*
X133493595Y-86949546D01*
X133407383Y-86909523D01*
X133293200Y-86855416D01*
X133154339Y-86788804D01*
X132994087Y-86711264D01*
X132815737Y-86624377D01*
X132622578Y-86529721D01*
X132417901Y-86428875D01*
X132407220Y-86423597D01*
X131256623Y-85855040D01*
X131131847Y-85917583D01*
X131092158Y-85937878D01*
X131019326Y-85975527D01*
X130917654Y-86028286D01*
X130791443Y-86093910D01*
X130644993Y-86170153D01*
X130482607Y-86254770D01*
X130308586Y-86345517D01*
X130127231Y-86440148D01*
X129942843Y-86536419D01*
X129759723Y-86632083D01*
X129582174Y-86724897D01*
X129414496Y-86812616D01*
X129260991Y-86892993D01*
X129125960Y-86963785D01*
X129013705Y-87022745D01*
X128936190Y-87063582D01*
X128872174Y-87097259D01*
X128777529Y-87146883D01*
X128659105Y-87208869D01*
X128523752Y-87279634D01*
X128378321Y-87355594D01*
X128229663Y-87433167D01*
X128228286Y-87433884D01*
X128083931Y-87509229D01*
X127946638Y-87580994D01*
X127822379Y-87646048D01*
X127717127Y-87701263D01*
X127636852Y-87743509D01*
X127587528Y-87769655D01*
X127584694Y-87771174D01*
X127479954Y-87827428D01*
X127018705Y-89672337D01*
X126950967Y-89943602D01*
X126886355Y-90202977D01*
X126825585Y-90447556D01*
X126769370Y-90674435D01*
X126718426Y-90880709D01*
X126673467Y-91063475D01*
X126635207Y-91219827D01*
X126604360Y-91346862D01*
X126581642Y-91441675D01*
X126567766Y-91501361D01*
X126563446Y-91523016D01*
X126563462Y-91523041D01*
X126585546Y-91524317D01*
X126647491Y-91525534D01*
X126746894Y-91526690D01*
X126881353Y-91527784D01*
X127048466Y-91528815D01*
X127245832Y-91529783D01*
X127471047Y-91530686D01*
X127721710Y-91531523D01*
X127995418Y-91532293D01*
X128289770Y-91532996D01*
X128602363Y-91533630D01*
X128930794Y-91534194D01*
X129272663Y-91534688D01*
X129625565Y-91535109D01*
X129987101Y-91535458D01*
X130354866Y-91535733D01*
X130726460Y-91535933D01*
X131099479Y-91536057D01*
X131471522Y-91536104D01*
X131840186Y-91536073D01*
X132203070Y-91535963D01*
X132557771Y-91535774D01*
X132901887Y-91535503D01*
X133233016Y-91535151D01*
X133548755Y-91534715D01*
X133846703Y-91534195D01*
X134124457Y-91533591D01*
X134379615Y-91532900D01*
X134609775Y-91532123D01*
X134812534Y-91531257D01*
X134985491Y-91530302D01*
X135126244Y-91529257D01*
X135232390Y-91528121D01*
X135301527Y-91526893D01*
X135307321Y-91526736D01*
X135490010Y-91521477D01*
X135701904Y-91515312D01*
X135929964Y-91508627D01*
X136161151Y-91501804D01*
X136382427Y-91495226D01*
X136554077Y-91490081D01*
X136744189Y-91484399D01*
X136944254Y-91478498D01*
X137143924Y-91472678D01*
X137332854Y-91467237D01*
X137500699Y-91462477D01*
X137637112Y-91458696D01*
X137642346Y-91458554D01*
X137793598Y-91454312D01*
X137950726Y-91449673D01*
X138101193Y-91445022D01*
X138232460Y-91440746D01*
X138318552Y-91437733D01*
X138411138Y-91434601D01*
X138536787Y-91430756D01*
X138686311Y-91426458D01*
X138850521Y-91421965D01*
X139020230Y-91417537D01*
X139142679Y-91414485D01*
X139297798Y-91410601D01*
X139442465Y-91406784D01*
X139570258Y-91403219D01*
X139674751Y-91400090D01*
X139749523Y-91397583D01*
X139787188Y-91395944D01*
X139811597Y-91396498D01*
X139850883Y-91400722D01*
X139907615Y-91409111D01*
X139984360Y-91422160D01*
X140083688Y-91440365D01*
X140208168Y-91464219D01*
X140360369Y-91494218D01*
X140542859Y-91530856D01*
X140758208Y-91574629D01*
X141008983Y-91626030D01*
X141297754Y-91685555D01*
X141393178Y-91705277D01*
X141805241Y-91790487D01*
X142069384Y-91941346D01*
X142257194Y-92048631D01*
X142412829Y-92137877D01*
X142540767Y-92212083D01*
X142645489Y-92274244D01*
X142731474Y-92327361D01*
X142803203Y-92374431D01*
X142865153Y-92418451D01*
X142921806Y-92462419D01*
X142977640Y-92509335D01*
X143037135Y-92562194D01*
X143104772Y-92623996D01*
X143145817Y-92661738D01*
X143442929Y-92934874D01*
X143443277Y-93359076D01*
X143443925Y-93523113D01*
X143445495Y-93704872D01*
X143447792Y-93888029D01*
X143450622Y-94056258D01*
X143452733Y-94153078D01*
X143454525Y-94239776D01*
X143456592Y-94363939D01*
X143458876Y-94520771D01*
X143461318Y-94705475D01*
X143463861Y-94913254D01*
X143466446Y-95139312D01*
X143469014Y-95378852D01*
X143471508Y-95627078D01*
X143473869Y-95879192D01*
X143474307Y-95928119D01*
X143476627Y-96179661D01*
X143479083Y-96427646D01*
X143481617Y-96667362D01*
X143484173Y-96894092D01*
X143486693Y-97103124D01*
X143489119Y-97289742D01*
X143491395Y-97449233D01*
X143493464Y-97576881D01*
X143495267Y-97667974D01*
X143495607Y-97682029D01*
X143497677Y-97783544D01*
X143499708Y-97920107D01*
X143501632Y-98084505D01*
X143503380Y-98269525D01*
X143504886Y-98467954D01*
X143506081Y-98672576D01*
X143506897Y-98876178D01*
X143506928Y-98886522D01*
X143509414Y-99742346D01*
X143270139Y-100389352D01*
X143030865Y-101036358D01*
X142400865Y-101725889D01*
X142268449Y-101870337D01*
X142143745Y-102005450D01*
X142029847Y-102127941D01*
X141929849Y-102234526D01*
X141846845Y-102321920D01*
X141783927Y-102386837D01*
X141744189Y-102425993D01*
X141731934Y-102436256D01*
X141705807Y-102446804D01*
X141643279Y-102470350D01*
X141547741Y-102505661D01*
X141422585Y-102551503D01*
X141271204Y-102606641D01*
X141096990Y-102669841D01*
X140903335Y-102739869D01*
X140693631Y-102815489D01*
X140471270Y-102895469D01*
X140367096Y-102932872D01*
X139041190Y-103408652D01*
X116893349Y-103406530D01*
X115693373Y-103406407D01*
X114534994Y-103406271D01*
X113417545Y-103406121D01*
X112340360Y-103405956D01*
X111302772Y-103405776D01*
X110304114Y-103405580D01*
X109343721Y-103405366D01*
X108420926Y-103405134D01*
X107535062Y-103404883D01*
X106685463Y-103404612D01*
X105871463Y-103404321D01*
X105092395Y-103404008D01*
X104347593Y-103403672D01*
X103636390Y-103403313D01*
X102958119Y-103402929D01*
X102312116Y-103402521D01*
X101697712Y-103402086D01*
X101114242Y-103401625D01*
X100561039Y-103401136D01*
X100037437Y-103400618D01*
X99542769Y-103400071D01*
X99076369Y-103399493D01*
X98637570Y-103398885D01*
X98225706Y-103398244D01*
X97840111Y-103397570D01*
X97480118Y-103396862D01*
X97145061Y-103396120D01*
X96834273Y-103395342D01*
X96547088Y-103394527D01*
X96282839Y-103393675D01*
X96040861Y-103392785D01*
X95820485Y-103391856D01*
X95621047Y-103390887D01*
X95441880Y-103389877D01*
X95282317Y-103388826D01*
X95141692Y-103387732D01*
X95019338Y-103386594D01*
X94914589Y-103385412D01*
X94826779Y-103384186D01*
X94755241Y-103382912D01*
X94699308Y-103381593D01*
X94658315Y-103380225D01*
X94631594Y-103378808D01*
X94618719Y-103377395D01*
X94568110Y-103366982D01*
X94481813Y-103349646D01*
X94365625Y-103326535D01*
X94225344Y-103298794D01*
X94066767Y-103267572D01*
X93895691Y-103234015D01*
X93756399Y-103206781D01*
X93020868Y-103063180D01*
X92213803Y-102589783D01*
X92041036Y-102488444D01*
X91875694Y-102391460D01*
X91722169Y-102301408D01*
X91584854Y-102220865D01*
X91468142Y-102152406D01*
X91376424Y-102098609D01*
X91314095Y-102062050D01*
X91292411Y-102049332D01*
X91264543Y-102029304D01*
X91221613Y-101992726D01*
X91162377Y-101938348D01*
X91085590Y-101864920D01*
X90990008Y-101771191D01*
X90874386Y-101655910D01*
X90737480Y-101517828D01*
X90578045Y-101355693D01*
X90394837Y-101168255D01*
X90186610Y-100954263D01*
X89952122Y-100712467D01*
X89690126Y-100441616D01*
X89612461Y-100361222D01*
X88046839Y-98740164D01*
X87883204Y-98395997D01*
X87820589Y-98264560D01*
X87745951Y-98108293D01*
X87665624Y-97940433D01*
X87585941Y-97774217D01*
X87516278Y-97629201D01*
X87450187Y-97491648D01*
X87384010Y-97353645D01*
X87322144Y-97224379D01*
X87268984Y-97113033D01*
X87228925Y-97028796D01*
X87223052Y-97016389D01*
X87193413Y-96953940D01*
X87148178Y-96858934D01*
X87090003Y-96736932D01*
X87021543Y-96593496D01*
X86945451Y-96434189D01*
X86864383Y-96264571D01*
X86780993Y-96090205D01*
X86774216Y-96076039D01*
X86682575Y-95884082D01*
X86607536Y-95725590D01*
X86547218Y-95596022D01*
X86499740Y-95490837D01*
X86463222Y-95405493D01*
X86435785Y-95335447D01*
X86415548Y-95276158D01*
X86400631Y-95223084D01*
X86389153Y-95171684D01*
X86380560Y-95125124D01*
X86320822Y-94780049D01*
X86267898Y-94474212D01*
X86221389Y-94205212D01*
X86180893Y-93970644D01*
X86146011Y-93768106D01*
X86116344Y-93595194D01*
X86091490Y-93449504D01*
X86071051Y-93328634D01*
X86054625Y-93230180D01*
X86041814Y-93151739D01*
X86032216Y-93090907D01*
X86025433Y-93045282D01*
X86021063Y-93012459D01*
X86018707Y-92990036D01*
X86017965Y-92975609D01*
X86018437Y-92966776D01*
X86019723Y-92961131D01*
X86020161Y-92959833D01*
X86025630Y-92934676D01*
X86037803Y-92872762D01*
X86055769Y-92778902D01*
X86078619Y-92657911D01*
X86105445Y-92514603D01*
X86135337Y-92353791D01*
X86165993Y-92187853D01*
X86228736Y-91847237D01*
X86284385Y-91545164D01*
X86333495Y-91278616D01*
X86376624Y-91044572D01*
X86414331Y-90840012D01*
X86447173Y-90661916D01*
X86475706Y-90507265D01*
X86500489Y-90373037D01*
X86522080Y-90256213D01*
X86541035Y-90153774D01*
X86557912Y-90062698D01*
X86573269Y-89979966D01*
X86587663Y-89902558D01*
X86601652Y-89827455D01*
X86610712Y-89778868D01*
X86630256Y-89673830D01*
X86657105Y-89529103D01*
X86690913Y-89346564D01*
X86731334Y-89128089D01*
X86778020Y-88875552D01*
X86830626Y-88590831D01*
X86888805Y-88275801D01*
X86952210Y-87932339D01*
X87020496Y-87562319D01*
X87093315Y-87167619D01*
X87170321Y-86750113D01*
X87251168Y-86311679D01*
X87307357Y-86006905D01*
X87340361Y-85827757D01*
X87379489Y-85615176D01*
X87423245Y-85377298D01*
X87470133Y-85122261D01*
X87518658Y-84858200D01*
X87567324Y-84593253D01*
X87614635Y-84335557D01*
X87653051Y-84126206D01*
X87858504Y-83006239D01*
X93393095Y-83006239D01*
X94058736Y-83144836D01*
X94724376Y-83283432D01*
X95217224Y-83538268D01*
X95710072Y-83793103D01*
X96044924Y-84112858D01*
X96379776Y-84432612D01*
X98141799Y-84432612D01*
X98324352Y-84288618D01*
X98491667Y-84157468D01*
X98634649Y-84047847D01*
X98761504Y-83954315D01*
X98880436Y-83871430D01*
X98999652Y-83793751D01*
X99127355Y-83715837D01*
X99271753Y-83632247D01*
X99441050Y-83537540D01*
X99535630Y-83485399D01*
X100120594Y-83163907D01*
X101046528Y-82849036D01*
X101972463Y-82534165D01*
X102659235Y-82446208D01*
X102888987Y-82416541D01*
X103082618Y-82391429D01*
X103246011Y-82370742D01*
X103385047Y-82354346D01*
X103505607Y-82342110D01*
X103613573Y-82333901D01*
X103714827Y-82329589D01*
X103815251Y-82329041D01*
X103920726Y-82332125D01*
X104037134Y-82338710D01*
X104170356Y-82348662D01*
X104326275Y-82361851D01*
X104510771Y-82378144D01*
X104729727Y-82397409D01*
X104751248Y-82399278D01*
X105754992Y-82486298D01*
X106521502Y-82719854D01*
X107288012Y-82953411D01*
X110311449Y-82953411D01*
X110299827Y-82356447D01*
X110297040Y-82205024D01*
X110293885Y-82019390D01*
X110290485Y-81807596D01*
X110286962Y-81577690D01*
X110283438Y-81337724D01*
X110280034Y-81095746D01*
X110276874Y-80859807D01*
X110275471Y-80750457D01*
X110262737Y-79741430D01*
X110808781Y-79741390D01*
X110882052Y-79741238D01*
X110995318Y-79740801D01*
X111146311Y-79740093D01*
X111332763Y-79739130D01*
X111552409Y-79737926D01*
X111802979Y-79736497D01*
X112082208Y-79734857D01*
X112387827Y-79733022D01*
X112717569Y-79731006D01*
X113069168Y-79728824D01*
X113440355Y-79726492D01*
X113828864Y-79724024D01*
X114232427Y-79721435D01*
X114648776Y-79718740D01*
X115075645Y-79715955D01*
X115510766Y-79713094D01*
X115951872Y-79710172D01*
X116396696Y-79707205D01*
X116842969Y-79704206D01*
X117288426Y-79701192D01*
X117730798Y-79698177D01*
X118167819Y-79695176D01*
X118597220Y-79692204D01*
X119016735Y-79689276D01*
X119424097Y-79686407D01*
X119817037Y-79683612D01*
X120193289Y-79680907D01*
X120550586Y-79678305D01*
X120886660Y-79675822D01*
X121199243Y-79673473D01*
X121486069Y-79671273D01*
X121744870Y-79669237D01*
X121814892Y-79668675D01*
X122053325Y-79666827D01*
X122328115Y-79664829D01*
X122633360Y-79662717D01*
X122963153Y-79660528D01*
X123311591Y-79658298D01*
X123672769Y-79656064D01*
X124040782Y-79653863D01*
X124409727Y-79651731D01*
X124773698Y-79649705D01*
X125126792Y-79647822D01*
X125417804Y-79646341D01*
X125733370Y-79644684D01*
X126048429Y-79642855D01*
X126358952Y-79640887D01*
X126660911Y-79638812D01*
X126950277Y-79636663D01*
X127223022Y-79634474D01*
X127475115Y-79632276D01*
X127702530Y-79630104D01*
X127901236Y-79627988D01*
X128067206Y-79625964D01*
X128196410Y-79624062D01*
X128233569Y-79623406D01*
X128403862Y-79620799D01*
X128555125Y-79619639D01*
X128682957Y-79619884D01*
G37*
D10*
X115127000Y-112800000D03*
D11*
X115127000Y-132800000D03*
D12*
X90000000Y-106000000D03*
D13*
X91796051Y-107796051D03*
D14*
X132000000Y-125190000D03*
X132000000Y-132810000D03*
X98250000Y-125190000D03*
X98250000Y-132810000D03*
D15*
X140000000Y-106000000D03*
D13*
X138203949Y-107796051D03*
M02*
