%TF.GenerationSoftware,KiCad,Pcbnew,(6.0.11)*%
%TF.CreationDate,2023-10-05T20:20:34-05:00*%
%TF.ProjectId,BSidesDFW_2023_Badge,42536964-6573-4444-9657-5f323032335f,1*%
%TF.SameCoordinates,Original*%
%TF.FileFunction,Drillmap*%
%TF.FilePolarity,Positive*%
%FSLAX45Y45*%
G04 Gerber Fmt 4.5, Leading zero omitted, Abs format (unit mm)*
G04 Created by KiCad (PCBNEW (6.0.11)) date 2023-10-05 20:20:34*
%MOMM*%
%LPD*%
G01*
G04 APERTURE LIST*
%ADD10C,0.100000*%
%ADD11C,0.200000*%
%ADD12C,0.070000*%
%ADD13C,0.090000*%
G04 APERTURE END LIST*
D10*
X13275000Y-7625000D02*
X13325000Y-7625000D01*
X12625000Y-7625000D02*
X12675000Y-7625000D01*
X11350000Y-6760000D02*
X11290000Y-6780000D01*
X8500000Y-8100000D02*
X8500000Y-14000000D01*
X11210000Y-6840000D02*
X11190000Y-6870000D01*
X11710000Y-6870000D02*
X11690000Y-6840000D01*
X14200000Y-7725000D02*
X14275000Y-7750000D01*
X12450000Y-7525000D02*
X12525000Y-7500000D01*
X10400000Y-8100000D02*
X10400000Y-6500000D01*
X13025000Y-7575000D02*
X13075000Y-7625000D01*
X13075000Y-7625000D02*
X13150000Y-7650000D01*
X12250000Y-7475000D02*
X12375000Y-7525000D01*
X14350000Y-8100000D02*
X14500000Y-8100000D01*
X8500000Y-8100000D02*
X10400000Y-8100000D01*
X11420000Y-6750000D02*
X11350000Y-6760000D01*
X11720000Y-7100000D02*
X11720000Y-6900000D01*
X12000000Y-7400000D02*
X12100000Y-7400000D01*
X12525000Y-7500000D02*
X12575000Y-7525000D01*
X11480000Y-6750000D02*
X11450000Y-6750000D01*
X13450000Y-7575000D02*
X13475000Y-7600000D01*
X11450000Y-6750000D02*
X11420000Y-6750000D01*
X13525000Y-7625000D02*
X13575000Y-7625000D01*
X13475000Y-7600000D02*
X13525000Y-7625000D01*
X13975000Y-7725000D02*
X14000000Y-7750000D01*
X12150000Y-7450000D02*
X12250000Y-7475000D01*
X12575000Y-7525000D02*
X12625000Y-7625000D01*
X11180000Y-7100000D02*
X11720000Y-7100000D01*
X14000000Y-7750000D02*
X14125000Y-7725000D01*
X12825000Y-7600000D02*
X12875000Y-7625000D01*
X14125000Y-7725000D02*
X14200000Y-7725000D01*
X11180000Y-6900000D02*
X11180000Y-7100000D01*
X13150000Y-7650000D02*
X13175000Y-7675000D01*
X13175000Y-7675000D02*
X13200000Y-7675000D01*
X12975000Y-7575000D02*
X13025000Y-7575000D01*
X11720000Y-6900000D02*
X11710000Y-6870000D01*
X11660000Y-6810000D02*
X11610000Y-6780000D01*
X13200000Y-7675000D02*
X13275000Y-7625000D01*
X12000000Y-6500000D02*
X12000000Y-7400000D01*
X13650000Y-7575000D02*
X13725000Y-7600000D01*
X12925000Y-7625000D02*
X12975000Y-7575000D01*
X11690000Y-6840000D02*
X11660000Y-6810000D01*
X13725000Y-7600000D02*
X13750000Y-7625000D01*
X8500000Y-14000000D02*
X14500000Y-14000000D01*
X13750000Y-7625000D02*
X13850000Y-7650000D01*
X11290000Y-6780000D02*
X11240000Y-6810000D01*
X13575000Y-7625000D02*
X13650000Y-7575000D01*
X13900000Y-7700000D02*
X13975000Y-7725000D01*
X13850000Y-7650000D02*
X13900000Y-7700000D01*
X11190000Y-6870000D02*
X11180000Y-6900000D01*
X12675000Y-7625000D02*
X12725000Y-7600000D01*
X14275000Y-7750000D02*
X14350000Y-8100000D01*
X11610000Y-6780000D02*
X11550000Y-6760000D01*
X13325000Y-7625000D02*
X13450000Y-7575000D01*
X11550000Y-6760000D02*
X11480000Y-6750000D01*
X14500000Y-14000000D02*
X14500000Y-8100000D01*
X12100000Y-7400000D02*
X12150000Y-7450000D01*
X12875000Y-7625000D02*
X12925000Y-7625000D01*
X12725000Y-7600000D02*
X12825000Y-7600000D01*
X11240000Y-6810000D02*
X11210000Y-6840000D01*
X12375000Y-7525000D02*
X12450000Y-7525000D01*
X10400000Y-6500000D02*
X12000000Y-6500000D01*
D11*
D12*
X9790000Y-12484000D02*
X9860000Y-12554000D01*
X9860000Y-12484000D02*
X9790000Y-12554000D01*
X9790000Y-13246000D02*
X9860000Y-13316000D01*
X9860000Y-13246000D02*
X9790000Y-13316000D01*
X13165000Y-12484000D02*
X13235000Y-12554000D01*
X13235000Y-12484000D02*
X13165000Y-12554000D01*
X13165000Y-13246000D02*
X13235000Y-13316000D01*
X13235000Y-13246000D02*
X13165000Y-13316000D01*
D13*
X9045000Y-10600000D02*
G75*
G03*
X9045000Y-10600000I-45000J0D01*
G01*
X9224605Y-10779605D02*
G75*
G03*
X9224605Y-10779605I-45000J0D01*
G01*
X13865395Y-10779605D02*
G75*
G03*
X13865395Y-10779605I-45000J0D01*
G01*
X14045000Y-10600000D02*
G75*
G03*
X14045000Y-10600000I-45000J0D01*
G01*
D10*
X11512700Y-11230000D02*
X11512700Y-11330000D01*
X11462700Y-11280000D02*
X11562700Y-11280000D01*
X11512700Y-13230000D02*
X11512700Y-13330000D01*
X11462700Y-13280000D02*
X11562700Y-13280000D01*
D11*
X8752619Y-14315476D02*
X8752619Y-14115476D01*
X8800238Y-14115476D01*
X8828810Y-14125000D01*
X8847857Y-14144048D01*
X8857381Y-14163095D01*
X8866905Y-14201190D01*
X8866905Y-14229762D01*
X8857381Y-14267857D01*
X8847857Y-14286905D01*
X8828810Y-14305952D01*
X8800238Y-14315476D01*
X8752619Y-14315476D01*
X8952619Y-14315476D02*
X8952619Y-14182143D01*
X8952619Y-14220238D02*
X8962143Y-14201190D01*
X8971667Y-14191667D01*
X8990714Y-14182143D01*
X9009762Y-14182143D01*
X9076429Y-14315476D02*
X9076429Y-14182143D01*
X9076429Y-14115476D02*
X9066905Y-14125000D01*
X9076429Y-14134524D01*
X9085952Y-14125000D01*
X9076429Y-14115476D01*
X9076429Y-14134524D01*
X9200238Y-14315476D02*
X9181190Y-14305952D01*
X9171667Y-14286905D01*
X9171667Y-14115476D01*
X9305000Y-14315476D02*
X9285952Y-14305952D01*
X9276429Y-14286905D01*
X9276429Y-14115476D01*
X9533571Y-14315476D02*
X9533571Y-14115476D01*
X9600238Y-14258333D01*
X9666905Y-14115476D01*
X9666905Y-14315476D01*
X9847857Y-14315476D02*
X9847857Y-14210714D01*
X9838333Y-14191667D01*
X9819286Y-14182143D01*
X9781190Y-14182143D01*
X9762143Y-14191667D01*
X9847857Y-14305952D02*
X9828810Y-14315476D01*
X9781190Y-14315476D01*
X9762143Y-14305952D01*
X9752619Y-14286905D01*
X9752619Y-14267857D01*
X9762143Y-14248809D01*
X9781190Y-14239286D01*
X9828810Y-14239286D01*
X9847857Y-14229762D01*
X9943095Y-14182143D02*
X9943095Y-14382143D01*
X9943095Y-14191667D02*
X9962143Y-14182143D01*
X10000238Y-14182143D01*
X10019286Y-14191667D01*
X10028810Y-14201190D01*
X10038333Y-14220238D01*
X10038333Y-14277381D01*
X10028810Y-14296428D01*
X10019286Y-14305952D01*
X10000238Y-14315476D01*
X9962143Y-14315476D01*
X9943095Y-14305952D01*
X10124048Y-14296428D02*
X10133571Y-14305952D01*
X10124048Y-14315476D01*
X10114524Y-14305952D01*
X10124048Y-14296428D01*
X10124048Y-14315476D01*
X10124048Y-14191667D02*
X10133571Y-14201190D01*
X10124048Y-14210714D01*
X10114524Y-14201190D01*
X10124048Y-14191667D01*
X10124048Y-14210714D01*
D12*
X8425000Y-14610000D02*
X8495000Y-14680000D01*
X8495000Y-14610000D02*
X8425000Y-14680000D01*
D11*
X8790714Y-14535476D02*
X8809762Y-14535476D01*
X8828810Y-14545000D01*
X8838333Y-14554524D01*
X8847857Y-14573571D01*
X8857381Y-14611667D01*
X8857381Y-14659286D01*
X8847857Y-14697381D01*
X8838333Y-14716428D01*
X8828810Y-14725952D01*
X8809762Y-14735476D01*
X8790714Y-14735476D01*
X8771667Y-14725952D01*
X8762143Y-14716428D01*
X8752619Y-14697381D01*
X8743095Y-14659286D01*
X8743095Y-14611667D01*
X8752619Y-14573571D01*
X8762143Y-14554524D01*
X8771667Y-14545000D01*
X8790714Y-14535476D01*
X8943095Y-14716428D02*
X8952619Y-14725952D01*
X8943095Y-14735476D01*
X8933571Y-14725952D01*
X8943095Y-14716428D01*
X8943095Y-14735476D01*
X9019286Y-14535476D02*
X9152619Y-14535476D01*
X9066905Y-14735476D01*
X9266905Y-14535476D02*
X9285952Y-14535476D01*
X9305000Y-14545000D01*
X9314524Y-14554524D01*
X9324048Y-14573571D01*
X9333571Y-14611667D01*
X9333571Y-14659286D01*
X9324048Y-14697381D01*
X9314524Y-14716428D01*
X9305000Y-14725952D01*
X9285952Y-14735476D01*
X9266905Y-14735476D01*
X9247857Y-14725952D01*
X9238333Y-14716428D01*
X9228810Y-14697381D01*
X9219286Y-14659286D01*
X9219286Y-14611667D01*
X9228810Y-14573571D01*
X9238333Y-14554524D01*
X9247857Y-14545000D01*
X9266905Y-14535476D01*
X9457381Y-14535476D02*
X9476429Y-14535476D01*
X9495476Y-14545000D01*
X9505000Y-14554524D01*
X9514524Y-14573571D01*
X9524048Y-14611667D01*
X9524048Y-14659286D01*
X9514524Y-14697381D01*
X9505000Y-14716428D01*
X9495476Y-14725952D01*
X9476429Y-14735476D01*
X9457381Y-14735476D01*
X9438333Y-14725952D01*
X9428810Y-14716428D01*
X9419286Y-14697381D01*
X9409762Y-14659286D01*
X9409762Y-14611667D01*
X9419286Y-14573571D01*
X9428810Y-14554524D01*
X9438333Y-14545000D01*
X9457381Y-14535476D01*
X9609762Y-14735476D02*
X9609762Y-14602143D01*
X9609762Y-14621190D02*
X9619286Y-14611667D01*
X9638333Y-14602143D01*
X9666905Y-14602143D01*
X9685952Y-14611667D01*
X9695476Y-14630714D01*
X9695476Y-14735476D01*
X9695476Y-14630714D02*
X9705000Y-14611667D01*
X9724048Y-14602143D01*
X9752619Y-14602143D01*
X9771667Y-14611667D01*
X9781190Y-14630714D01*
X9781190Y-14735476D01*
X9876429Y-14735476D02*
X9876429Y-14602143D01*
X9876429Y-14621190D02*
X9885952Y-14611667D01*
X9905000Y-14602143D01*
X9933571Y-14602143D01*
X9952619Y-14611667D01*
X9962143Y-14630714D01*
X9962143Y-14735476D01*
X9962143Y-14630714D02*
X9971667Y-14611667D01*
X9990714Y-14602143D01*
X10019286Y-14602143D01*
X10038333Y-14611667D01*
X10047857Y-14630714D01*
X10047857Y-14735476D01*
X10438333Y-14525952D02*
X10266905Y-14783095D01*
X10695476Y-14535476D02*
X10714524Y-14535476D01*
X10733571Y-14545000D01*
X10743095Y-14554524D01*
X10752619Y-14573571D01*
X10762143Y-14611667D01*
X10762143Y-14659286D01*
X10752619Y-14697381D01*
X10743095Y-14716428D01*
X10733571Y-14725952D01*
X10714524Y-14735476D01*
X10695476Y-14735476D01*
X10676429Y-14725952D01*
X10666905Y-14716428D01*
X10657381Y-14697381D01*
X10647857Y-14659286D01*
X10647857Y-14611667D01*
X10657381Y-14573571D01*
X10666905Y-14554524D01*
X10676429Y-14545000D01*
X10695476Y-14535476D01*
X10847857Y-14716428D02*
X10857381Y-14725952D01*
X10847857Y-14735476D01*
X10838333Y-14725952D01*
X10847857Y-14716428D01*
X10847857Y-14735476D01*
X10981190Y-14535476D02*
X11000238Y-14535476D01*
X11019286Y-14545000D01*
X11028810Y-14554524D01*
X11038333Y-14573571D01*
X11047857Y-14611667D01*
X11047857Y-14659286D01*
X11038333Y-14697381D01*
X11028810Y-14716428D01*
X11019286Y-14725952D01*
X11000238Y-14735476D01*
X10981190Y-14735476D01*
X10962143Y-14725952D01*
X10952619Y-14716428D01*
X10943095Y-14697381D01*
X10933571Y-14659286D01*
X10933571Y-14611667D01*
X10943095Y-14573571D01*
X10952619Y-14554524D01*
X10962143Y-14545000D01*
X10981190Y-14535476D01*
X11124048Y-14554524D02*
X11133571Y-14545000D01*
X11152619Y-14535476D01*
X11200238Y-14535476D01*
X11219286Y-14545000D01*
X11228809Y-14554524D01*
X11238333Y-14573571D01*
X11238333Y-14592619D01*
X11228809Y-14621190D01*
X11114524Y-14735476D01*
X11238333Y-14735476D01*
X11305000Y-14535476D02*
X11438333Y-14535476D01*
X11352619Y-14735476D01*
X11600238Y-14535476D02*
X11562143Y-14535476D01*
X11543095Y-14545000D01*
X11533571Y-14554524D01*
X11514524Y-14583095D01*
X11505000Y-14621190D01*
X11505000Y-14697381D01*
X11514524Y-14716428D01*
X11524048Y-14725952D01*
X11543095Y-14735476D01*
X11581190Y-14735476D01*
X11600238Y-14725952D01*
X11609762Y-14716428D01*
X11619286Y-14697381D01*
X11619286Y-14649762D01*
X11609762Y-14630714D01*
X11600238Y-14621190D01*
X11581190Y-14611667D01*
X11543095Y-14611667D01*
X11524048Y-14621190D01*
X11514524Y-14630714D01*
X11505000Y-14649762D01*
X11695476Y-14535476D02*
X11695476Y-14573571D01*
X11771667Y-14535476D02*
X11771667Y-14573571D01*
X12066905Y-14811667D02*
X12057381Y-14802143D01*
X12038333Y-14773571D01*
X12028809Y-14754524D01*
X12019286Y-14725952D01*
X12009762Y-14678333D01*
X12009762Y-14640238D01*
X12019286Y-14592619D01*
X12028809Y-14564048D01*
X12038333Y-14545000D01*
X12057381Y-14516428D01*
X12066905Y-14506905D01*
X12228809Y-14602143D02*
X12228809Y-14735476D01*
X12181190Y-14525952D02*
X12133571Y-14668809D01*
X12257381Y-14668809D01*
X12485952Y-14735476D02*
X12485952Y-14535476D01*
X12571667Y-14735476D02*
X12571667Y-14630714D01*
X12562143Y-14611667D01*
X12543095Y-14602143D01*
X12514524Y-14602143D01*
X12495476Y-14611667D01*
X12485952Y-14621190D01*
X12695476Y-14735476D02*
X12676428Y-14725952D01*
X12666905Y-14716428D01*
X12657381Y-14697381D01*
X12657381Y-14640238D01*
X12666905Y-14621190D01*
X12676428Y-14611667D01*
X12695476Y-14602143D01*
X12724048Y-14602143D01*
X12743095Y-14611667D01*
X12752619Y-14621190D01*
X12762143Y-14640238D01*
X12762143Y-14697381D01*
X12752619Y-14716428D01*
X12743095Y-14725952D01*
X12724048Y-14735476D01*
X12695476Y-14735476D01*
X12876428Y-14735476D02*
X12857381Y-14725952D01*
X12847857Y-14706905D01*
X12847857Y-14535476D01*
X13028809Y-14725952D02*
X13009762Y-14735476D01*
X12971667Y-14735476D01*
X12952619Y-14725952D01*
X12943095Y-14706905D01*
X12943095Y-14630714D01*
X12952619Y-14611667D01*
X12971667Y-14602143D01*
X13009762Y-14602143D01*
X13028809Y-14611667D01*
X13038333Y-14630714D01*
X13038333Y-14649762D01*
X12943095Y-14668809D01*
X13114524Y-14725952D02*
X13133571Y-14735476D01*
X13171667Y-14735476D01*
X13190714Y-14725952D01*
X13200238Y-14706905D01*
X13200238Y-14697381D01*
X13190714Y-14678333D01*
X13171667Y-14668809D01*
X13143095Y-14668809D01*
X13124048Y-14659286D01*
X13114524Y-14640238D01*
X13114524Y-14630714D01*
X13124048Y-14611667D01*
X13143095Y-14602143D01*
X13171667Y-14602143D01*
X13190714Y-14611667D01*
X13266905Y-14811667D02*
X13276428Y-14802143D01*
X13295476Y-14773571D01*
X13305000Y-14754524D01*
X13314524Y-14725952D01*
X13324048Y-14678333D01*
X13324048Y-14640238D01*
X13314524Y-14592619D01*
X13305000Y-14564048D01*
X13295476Y-14545000D01*
X13276428Y-14516428D01*
X13266905Y-14506905D01*
D13*
X8495000Y-14909000D02*
G75*
G03*
X8495000Y-14909000I-45000J0D01*
G01*
D11*
X8790714Y-14799476D02*
X8809762Y-14799476D01*
X8828810Y-14809000D01*
X8838333Y-14818524D01*
X8847857Y-14837571D01*
X8857381Y-14875667D01*
X8857381Y-14923286D01*
X8847857Y-14961381D01*
X8838333Y-14980428D01*
X8828810Y-14989952D01*
X8809762Y-14999476D01*
X8790714Y-14999476D01*
X8771667Y-14989952D01*
X8762143Y-14980428D01*
X8752619Y-14961381D01*
X8743095Y-14923286D01*
X8743095Y-14875667D01*
X8752619Y-14837571D01*
X8762143Y-14818524D01*
X8771667Y-14809000D01*
X8790714Y-14799476D01*
X8943095Y-14980428D02*
X8952619Y-14989952D01*
X8943095Y-14999476D01*
X8933571Y-14989952D01*
X8943095Y-14980428D01*
X8943095Y-14999476D01*
X9047857Y-14999476D02*
X9085952Y-14999476D01*
X9105000Y-14989952D01*
X9114524Y-14980428D01*
X9133571Y-14951857D01*
X9143095Y-14913762D01*
X9143095Y-14837571D01*
X9133571Y-14818524D01*
X9124048Y-14809000D01*
X9105000Y-14799476D01*
X9066905Y-14799476D01*
X9047857Y-14809000D01*
X9038333Y-14818524D01*
X9028810Y-14837571D01*
X9028810Y-14885190D01*
X9038333Y-14904238D01*
X9047857Y-14913762D01*
X9066905Y-14923286D01*
X9105000Y-14923286D01*
X9124048Y-14913762D01*
X9133571Y-14904238D01*
X9143095Y-14885190D01*
X9266905Y-14799476D02*
X9285952Y-14799476D01*
X9305000Y-14809000D01*
X9314524Y-14818524D01*
X9324048Y-14837571D01*
X9333571Y-14875667D01*
X9333571Y-14923286D01*
X9324048Y-14961381D01*
X9314524Y-14980428D01*
X9305000Y-14989952D01*
X9285952Y-14999476D01*
X9266905Y-14999476D01*
X9247857Y-14989952D01*
X9238333Y-14980428D01*
X9228810Y-14961381D01*
X9219286Y-14923286D01*
X9219286Y-14875667D01*
X9228810Y-14837571D01*
X9238333Y-14818524D01*
X9247857Y-14809000D01*
X9266905Y-14799476D01*
X9457381Y-14799476D02*
X9476429Y-14799476D01*
X9495476Y-14809000D01*
X9505000Y-14818524D01*
X9514524Y-14837571D01*
X9524048Y-14875667D01*
X9524048Y-14923286D01*
X9514524Y-14961381D01*
X9505000Y-14980428D01*
X9495476Y-14989952D01*
X9476429Y-14999476D01*
X9457381Y-14999476D01*
X9438333Y-14989952D01*
X9428810Y-14980428D01*
X9419286Y-14961381D01*
X9409762Y-14923286D01*
X9409762Y-14875667D01*
X9419286Y-14837571D01*
X9428810Y-14818524D01*
X9438333Y-14809000D01*
X9457381Y-14799476D01*
X9609762Y-14999476D02*
X9609762Y-14866143D01*
X9609762Y-14885190D02*
X9619286Y-14875667D01*
X9638333Y-14866143D01*
X9666905Y-14866143D01*
X9685952Y-14875667D01*
X9695476Y-14894714D01*
X9695476Y-14999476D01*
X9695476Y-14894714D02*
X9705000Y-14875667D01*
X9724048Y-14866143D01*
X9752619Y-14866143D01*
X9771667Y-14875667D01*
X9781190Y-14894714D01*
X9781190Y-14999476D01*
X9876429Y-14999476D02*
X9876429Y-14866143D01*
X9876429Y-14885190D02*
X9885952Y-14875667D01*
X9905000Y-14866143D01*
X9933571Y-14866143D01*
X9952619Y-14875667D01*
X9962143Y-14894714D01*
X9962143Y-14999476D01*
X9962143Y-14894714D02*
X9971667Y-14875667D01*
X9990714Y-14866143D01*
X10019286Y-14866143D01*
X10038333Y-14875667D01*
X10047857Y-14894714D01*
X10047857Y-14999476D01*
X10438333Y-14789952D02*
X10266905Y-15047095D01*
X10695476Y-14799476D02*
X10714524Y-14799476D01*
X10733571Y-14809000D01*
X10743095Y-14818524D01*
X10752619Y-14837571D01*
X10762143Y-14875667D01*
X10762143Y-14923286D01*
X10752619Y-14961381D01*
X10743095Y-14980428D01*
X10733571Y-14989952D01*
X10714524Y-14999476D01*
X10695476Y-14999476D01*
X10676429Y-14989952D01*
X10666905Y-14980428D01*
X10657381Y-14961381D01*
X10647857Y-14923286D01*
X10647857Y-14875667D01*
X10657381Y-14837571D01*
X10666905Y-14818524D01*
X10676429Y-14809000D01*
X10695476Y-14799476D01*
X10847857Y-14980428D02*
X10857381Y-14989952D01*
X10847857Y-14999476D01*
X10838333Y-14989952D01*
X10847857Y-14980428D01*
X10847857Y-14999476D01*
X10981190Y-14799476D02*
X11000238Y-14799476D01*
X11019286Y-14809000D01*
X11028810Y-14818524D01*
X11038333Y-14837571D01*
X11047857Y-14875667D01*
X11047857Y-14923286D01*
X11038333Y-14961381D01*
X11028810Y-14980428D01*
X11019286Y-14989952D01*
X11000238Y-14999476D01*
X10981190Y-14999476D01*
X10962143Y-14989952D01*
X10952619Y-14980428D01*
X10943095Y-14961381D01*
X10933571Y-14923286D01*
X10933571Y-14875667D01*
X10943095Y-14837571D01*
X10952619Y-14818524D01*
X10962143Y-14809000D01*
X10981190Y-14799476D01*
X11114524Y-14799476D02*
X11238333Y-14799476D01*
X11171667Y-14875667D01*
X11200238Y-14875667D01*
X11219286Y-14885190D01*
X11228809Y-14894714D01*
X11238333Y-14913762D01*
X11238333Y-14961381D01*
X11228809Y-14980428D01*
X11219286Y-14989952D01*
X11200238Y-14999476D01*
X11143095Y-14999476D01*
X11124048Y-14989952D01*
X11114524Y-14980428D01*
X11419286Y-14799476D02*
X11324048Y-14799476D01*
X11314524Y-14894714D01*
X11324048Y-14885190D01*
X11343095Y-14875667D01*
X11390714Y-14875667D01*
X11409762Y-14885190D01*
X11419286Y-14894714D01*
X11428809Y-14913762D01*
X11428809Y-14961381D01*
X11419286Y-14980428D01*
X11409762Y-14989952D01*
X11390714Y-14999476D01*
X11343095Y-14999476D01*
X11324048Y-14989952D01*
X11314524Y-14980428D01*
X11600238Y-14866143D02*
X11600238Y-14999476D01*
X11552619Y-14789952D02*
X11505000Y-14932809D01*
X11628809Y-14932809D01*
X11695476Y-14799476D02*
X11695476Y-14837571D01*
X11771667Y-14799476D02*
X11771667Y-14837571D01*
X12066905Y-15075667D02*
X12057381Y-15066143D01*
X12038333Y-15037571D01*
X12028809Y-15018524D01*
X12019286Y-14989952D01*
X12009762Y-14942333D01*
X12009762Y-14904238D01*
X12019286Y-14856619D01*
X12028809Y-14828048D01*
X12038333Y-14809000D01*
X12057381Y-14780428D01*
X12066905Y-14770905D01*
X12228809Y-14866143D02*
X12228809Y-14999476D01*
X12181190Y-14789952D02*
X12133571Y-14932809D01*
X12257381Y-14932809D01*
X12485952Y-14999476D02*
X12485952Y-14799476D01*
X12571667Y-14999476D02*
X12571667Y-14894714D01*
X12562143Y-14875667D01*
X12543095Y-14866143D01*
X12514524Y-14866143D01*
X12495476Y-14875667D01*
X12485952Y-14885190D01*
X12695476Y-14999476D02*
X12676428Y-14989952D01*
X12666905Y-14980428D01*
X12657381Y-14961381D01*
X12657381Y-14904238D01*
X12666905Y-14885190D01*
X12676428Y-14875667D01*
X12695476Y-14866143D01*
X12724048Y-14866143D01*
X12743095Y-14875667D01*
X12752619Y-14885190D01*
X12762143Y-14904238D01*
X12762143Y-14961381D01*
X12752619Y-14980428D01*
X12743095Y-14989952D01*
X12724048Y-14999476D01*
X12695476Y-14999476D01*
X12876428Y-14999476D02*
X12857381Y-14989952D01*
X12847857Y-14970905D01*
X12847857Y-14799476D01*
X13028809Y-14989952D02*
X13009762Y-14999476D01*
X12971667Y-14999476D01*
X12952619Y-14989952D01*
X12943095Y-14970905D01*
X12943095Y-14894714D01*
X12952619Y-14875667D01*
X12971667Y-14866143D01*
X13009762Y-14866143D01*
X13028809Y-14875667D01*
X13038333Y-14894714D01*
X13038333Y-14913762D01*
X12943095Y-14932809D01*
X13114524Y-14989952D02*
X13133571Y-14999476D01*
X13171667Y-14999476D01*
X13190714Y-14989952D01*
X13200238Y-14970905D01*
X13200238Y-14961381D01*
X13190714Y-14942333D01*
X13171667Y-14932809D01*
X13143095Y-14932809D01*
X13124048Y-14923286D01*
X13114524Y-14904238D01*
X13114524Y-14894714D01*
X13124048Y-14875667D01*
X13143095Y-14866143D01*
X13171667Y-14866143D01*
X13190714Y-14875667D01*
X13266905Y-15075667D02*
X13276428Y-15066143D01*
X13295476Y-15037571D01*
X13305000Y-15018524D01*
X13314524Y-14989952D01*
X13324048Y-14942333D01*
X13324048Y-14904238D01*
X13314524Y-14856619D01*
X13305000Y-14828048D01*
X13295476Y-14809000D01*
X13276428Y-14780428D01*
X13266905Y-14770905D01*
D10*
X8445000Y-15123000D02*
X8445000Y-15223000D01*
X8395000Y-15173000D02*
X8495000Y-15173000D01*
D11*
X8857381Y-15263476D02*
X8743095Y-15263476D01*
X8800238Y-15263476D02*
X8800238Y-15063476D01*
X8781190Y-15092048D01*
X8762143Y-15111095D01*
X8743095Y-15120619D01*
X8943095Y-15244428D02*
X8952619Y-15253952D01*
X8943095Y-15263476D01*
X8933571Y-15253952D01*
X8943095Y-15244428D01*
X8943095Y-15263476D01*
X9076429Y-15063476D02*
X9095476Y-15063476D01*
X9114524Y-15073000D01*
X9124048Y-15082524D01*
X9133571Y-15101571D01*
X9143095Y-15139667D01*
X9143095Y-15187286D01*
X9133571Y-15225381D01*
X9124048Y-15244428D01*
X9114524Y-15253952D01*
X9095476Y-15263476D01*
X9076429Y-15263476D01*
X9057381Y-15253952D01*
X9047857Y-15244428D01*
X9038333Y-15225381D01*
X9028810Y-15187286D01*
X9028810Y-15139667D01*
X9038333Y-15101571D01*
X9047857Y-15082524D01*
X9057381Y-15073000D01*
X9076429Y-15063476D01*
X9266905Y-15063476D02*
X9285952Y-15063476D01*
X9305000Y-15073000D01*
X9314524Y-15082524D01*
X9324048Y-15101571D01*
X9333571Y-15139667D01*
X9333571Y-15187286D01*
X9324048Y-15225381D01*
X9314524Y-15244428D01*
X9305000Y-15253952D01*
X9285952Y-15263476D01*
X9266905Y-15263476D01*
X9247857Y-15253952D01*
X9238333Y-15244428D01*
X9228810Y-15225381D01*
X9219286Y-15187286D01*
X9219286Y-15139667D01*
X9228810Y-15101571D01*
X9238333Y-15082524D01*
X9247857Y-15073000D01*
X9266905Y-15063476D01*
X9457381Y-15063476D02*
X9476429Y-15063476D01*
X9495476Y-15073000D01*
X9505000Y-15082524D01*
X9514524Y-15101571D01*
X9524048Y-15139667D01*
X9524048Y-15187286D01*
X9514524Y-15225381D01*
X9505000Y-15244428D01*
X9495476Y-15253952D01*
X9476429Y-15263476D01*
X9457381Y-15263476D01*
X9438333Y-15253952D01*
X9428810Y-15244428D01*
X9419286Y-15225381D01*
X9409762Y-15187286D01*
X9409762Y-15139667D01*
X9419286Y-15101571D01*
X9428810Y-15082524D01*
X9438333Y-15073000D01*
X9457381Y-15063476D01*
X9609762Y-15263476D02*
X9609762Y-15130143D01*
X9609762Y-15149190D02*
X9619286Y-15139667D01*
X9638333Y-15130143D01*
X9666905Y-15130143D01*
X9685952Y-15139667D01*
X9695476Y-15158714D01*
X9695476Y-15263476D01*
X9695476Y-15158714D02*
X9705000Y-15139667D01*
X9724048Y-15130143D01*
X9752619Y-15130143D01*
X9771667Y-15139667D01*
X9781190Y-15158714D01*
X9781190Y-15263476D01*
X9876429Y-15263476D02*
X9876429Y-15130143D01*
X9876429Y-15149190D02*
X9885952Y-15139667D01*
X9905000Y-15130143D01*
X9933571Y-15130143D01*
X9952619Y-15139667D01*
X9962143Y-15158714D01*
X9962143Y-15263476D01*
X9962143Y-15158714D02*
X9971667Y-15139667D01*
X9990714Y-15130143D01*
X10019286Y-15130143D01*
X10038333Y-15139667D01*
X10047857Y-15158714D01*
X10047857Y-15263476D01*
X10438333Y-15053952D02*
X10266905Y-15311095D01*
X10695476Y-15063476D02*
X10714524Y-15063476D01*
X10733571Y-15073000D01*
X10743095Y-15082524D01*
X10752619Y-15101571D01*
X10762143Y-15139667D01*
X10762143Y-15187286D01*
X10752619Y-15225381D01*
X10743095Y-15244428D01*
X10733571Y-15253952D01*
X10714524Y-15263476D01*
X10695476Y-15263476D01*
X10676429Y-15253952D01*
X10666905Y-15244428D01*
X10657381Y-15225381D01*
X10647857Y-15187286D01*
X10647857Y-15139667D01*
X10657381Y-15101571D01*
X10666905Y-15082524D01*
X10676429Y-15073000D01*
X10695476Y-15063476D01*
X10847857Y-15244428D02*
X10857381Y-15253952D01*
X10847857Y-15263476D01*
X10838333Y-15253952D01*
X10847857Y-15244428D01*
X10847857Y-15263476D01*
X10981190Y-15063476D02*
X11000238Y-15063476D01*
X11019286Y-15073000D01*
X11028810Y-15082524D01*
X11038333Y-15101571D01*
X11047857Y-15139667D01*
X11047857Y-15187286D01*
X11038333Y-15225381D01*
X11028810Y-15244428D01*
X11019286Y-15253952D01*
X11000238Y-15263476D01*
X10981190Y-15263476D01*
X10962143Y-15253952D01*
X10952619Y-15244428D01*
X10943095Y-15225381D01*
X10933571Y-15187286D01*
X10933571Y-15139667D01*
X10943095Y-15101571D01*
X10952619Y-15082524D01*
X10962143Y-15073000D01*
X10981190Y-15063476D01*
X11114524Y-15063476D02*
X11238333Y-15063476D01*
X11171667Y-15139667D01*
X11200238Y-15139667D01*
X11219286Y-15149190D01*
X11228809Y-15158714D01*
X11238333Y-15177762D01*
X11238333Y-15225381D01*
X11228809Y-15244428D01*
X11219286Y-15253952D01*
X11200238Y-15263476D01*
X11143095Y-15263476D01*
X11124048Y-15253952D01*
X11114524Y-15244428D01*
X11333571Y-15263476D02*
X11371667Y-15263476D01*
X11390714Y-15253952D01*
X11400238Y-15244428D01*
X11419286Y-15215857D01*
X11428809Y-15177762D01*
X11428809Y-15101571D01*
X11419286Y-15082524D01*
X11409762Y-15073000D01*
X11390714Y-15063476D01*
X11352619Y-15063476D01*
X11333571Y-15073000D01*
X11324048Y-15082524D01*
X11314524Y-15101571D01*
X11314524Y-15149190D01*
X11324048Y-15168238D01*
X11333571Y-15177762D01*
X11352619Y-15187286D01*
X11390714Y-15187286D01*
X11409762Y-15177762D01*
X11419286Y-15168238D01*
X11428809Y-15149190D01*
X11600238Y-15130143D02*
X11600238Y-15263476D01*
X11552619Y-15053952D02*
X11505000Y-15196809D01*
X11628809Y-15196809D01*
X11695476Y-15063476D02*
X11695476Y-15101571D01*
X11771667Y-15063476D02*
X11771667Y-15101571D01*
X12066905Y-15339667D02*
X12057381Y-15330143D01*
X12038333Y-15301571D01*
X12028809Y-15282524D01*
X12019286Y-15253952D01*
X12009762Y-15206333D01*
X12009762Y-15168238D01*
X12019286Y-15120619D01*
X12028809Y-15092048D01*
X12038333Y-15073000D01*
X12057381Y-15044428D01*
X12066905Y-15034905D01*
X12133571Y-15082524D02*
X12143095Y-15073000D01*
X12162143Y-15063476D01*
X12209762Y-15063476D01*
X12228809Y-15073000D01*
X12238333Y-15082524D01*
X12247857Y-15101571D01*
X12247857Y-15120619D01*
X12238333Y-15149190D01*
X12124048Y-15263476D01*
X12247857Y-15263476D01*
X12485952Y-15263476D02*
X12485952Y-15063476D01*
X12571667Y-15263476D02*
X12571667Y-15158714D01*
X12562143Y-15139667D01*
X12543095Y-15130143D01*
X12514524Y-15130143D01*
X12495476Y-15139667D01*
X12485952Y-15149190D01*
X12695476Y-15263476D02*
X12676428Y-15253952D01*
X12666905Y-15244428D01*
X12657381Y-15225381D01*
X12657381Y-15168238D01*
X12666905Y-15149190D01*
X12676428Y-15139667D01*
X12695476Y-15130143D01*
X12724048Y-15130143D01*
X12743095Y-15139667D01*
X12752619Y-15149190D01*
X12762143Y-15168238D01*
X12762143Y-15225381D01*
X12752619Y-15244428D01*
X12743095Y-15253952D01*
X12724048Y-15263476D01*
X12695476Y-15263476D01*
X12876428Y-15263476D02*
X12857381Y-15253952D01*
X12847857Y-15234905D01*
X12847857Y-15063476D01*
X13028809Y-15253952D02*
X13009762Y-15263476D01*
X12971667Y-15263476D01*
X12952619Y-15253952D01*
X12943095Y-15234905D01*
X12943095Y-15158714D01*
X12952619Y-15139667D01*
X12971667Y-15130143D01*
X13009762Y-15130143D01*
X13028809Y-15139667D01*
X13038333Y-15158714D01*
X13038333Y-15177762D01*
X12943095Y-15196809D01*
X13114524Y-15253952D02*
X13133571Y-15263476D01*
X13171667Y-15263476D01*
X13190714Y-15253952D01*
X13200238Y-15234905D01*
X13200238Y-15225381D01*
X13190714Y-15206333D01*
X13171667Y-15196809D01*
X13143095Y-15196809D01*
X13124048Y-15187286D01*
X13114524Y-15168238D01*
X13114524Y-15158714D01*
X13124048Y-15139667D01*
X13143095Y-15130143D01*
X13171667Y-15130143D01*
X13190714Y-15139667D01*
X13266905Y-15339667D02*
X13276428Y-15330143D01*
X13295476Y-15301571D01*
X13305000Y-15282524D01*
X13314524Y-15253952D01*
X13324048Y-15206333D01*
X13324048Y-15168238D01*
X13314524Y-15120619D01*
X13305000Y-15092048D01*
X13295476Y-15073000D01*
X13276428Y-15044428D01*
X13266905Y-15034905D01*
M02*
