%TF.GenerationSoftware,KiCad,Pcbnew,(6.0.11)*%
%TF.CreationDate,2023-10-05T20:18:08-05:00*%
%TF.ProjectId,BSidesDFW_2023_Badge,42536964-6573-4444-9657-5f323032335f,1*%
%TF.SameCoordinates,Original*%
%TF.FileFunction,Profile,NP*%
%FSLAX46Y46*%
G04 Gerber Fmt 4.6, Leading zero omitted, Abs format (unit mm)*
G04 Created by KiCad (PCBNEW (6.0.11)) date 2023-10-05 20:18:08*
%MOMM*%
%LPD*%
G01*
G04 APERTURE LIST*
%TA.AperFunction,Profile*%
%ADD10C,0.100000*%
%TD*%
G04 APERTURE END LIST*
D10*
X132750000Y-76250000D02*
X133250000Y-76250000D01*
X126250000Y-76250000D02*
X126750000Y-76250000D01*
X113500000Y-67600000D02*
X112900000Y-67800000D01*
X85000000Y-81000000D02*
X85000000Y-140000000D01*
X112100000Y-68400000D02*
X111900000Y-68700000D01*
X117100000Y-68700000D02*
X116900000Y-68400000D01*
X142000000Y-77250000D02*
X142750000Y-77500000D01*
X124500000Y-75250000D02*
X125250000Y-75000000D01*
X104000000Y-81000000D02*
X104000000Y-65000000D01*
X130250000Y-75750000D02*
X130750000Y-76250000D01*
X130750000Y-76250000D02*
X131500000Y-76500000D01*
X122500000Y-74750000D02*
X123750000Y-75250000D01*
X143500000Y-81000000D02*
X145000000Y-81000000D01*
X85000000Y-81000000D02*
X104000000Y-81000000D01*
X114200000Y-67500000D02*
X113500000Y-67600000D01*
X117200000Y-71000000D02*
X117200000Y-69000000D01*
X120000000Y-74000000D02*
X121000000Y-74000000D01*
X125250000Y-75000000D02*
X125750000Y-75250000D01*
X114800000Y-67500000D02*
X114500000Y-67500000D01*
X134500000Y-75750000D02*
X134750000Y-76000000D01*
X114500000Y-67500000D02*
X114200000Y-67500000D01*
X135250000Y-76250000D02*
X135750000Y-76250000D01*
X134750000Y-76000000D02*
X135250000Y-76250000D01*
X139750000Y-77250000D02*
X140000000Y-77500000D01*
X121500000Y-74500000D02*
X122500000Y-74750000D01*
X125750000Y-75250000D02*
X126250000Y-76250000D01*
X111800000Y-71000000D02*
X117200000Y-71000000D01*
X140000000Y-77500000D02*
X141250000Y-77250000D01*
X128250000Y-76000000D02*
X128750000Y-76250000D01*
X141250000Y-77250000D02*
X142000000Y-77250000D01*
X111800000Y-69000000D02*
X111800000Y-71000000D01*
X131500000Y-76500000D02*
X131750000Y-76750000D01*
X131750000Y-76750000D02*
X132000000Y-76750000D01*
X129750000Y-75750000D02*
X130250000Y-75750000D01*
X117200000Y-69000000D02*
X117100000Y-68700000D01*
X116600000Y-68100000D02*
X116100000Y-67800000D01*
X132000000Y-76750000D02*
X132750000Y-76250000D01*
X120000000Y-65000000D02*
X120000000Y-74000000D01*
X136500000Y-75750000D02*
X137250000Y-76000000D01*
X129250000Y-76250000D02*
X129750000Y-75750000D01*
X116900000Y-68400000D02*
X116600000Y-68100000D01*
X137250000Y-76000000D02*
X137500000Y-76250000D01*
X85000000Y-140000000D02*
X145000000Y-140000000D01*
X137500000Y-76250000D02*
X138500000Y-76500000D01*
X112900000Y-67800000D02*
X112400000Y-68100000D01*
X135750000Y-76250000D02*
X136500000Y-75750000D01*
X139000000Y-77000000D02*
X139750000Y-77250000D01*
X138500000Y-76500000D02*
X139000000Y-77000000D01*
X111900000Y-68700000D02*
X111800000Y-69000000D01*
X126750000Y-76250000D02*
X127250000Y-76000000D01*
X142750000Y-77500000D02*
X143500000Y-81000000D01*
X116100000Y-67800000D02*
X115500000Y-67600000D01*
X133250000Y-76250000D02*
X134500000Y-75750000D01*
X115500000Y-67600000D02*
X114800000Y-67500000D01*
X145000000Y-140000000D02*
X145000000Y-81000000D01*
X121000000Y-74000000D02*
X121500000Y-74500000D01*
X128750000Y-76250000D02*
X129250000Y-76250000D01*
X127250000Y-76000000D02*
X128250000Y-76000000D01*
X112400000Y-68100000D02*
X112100000Y-68400000D01*
X123750000Y-75250000D02*
X124500000Y-75250000D01*
X104000000Y-65000000D02*
X120000000Y-65000000D01*
M02*
